<svg aria-hidden="true" style="position:absolute;width:0;height:0;overflow:hidden" xmlns="http://www.w3.org/2000/svg">
  <defs>
    <symbol id="icon-logo" viewBox="0 0 189 32">
      <path fill="#1e212c" style="fill:var(--color1, #1e212c)" d="M0 16.145C0 7.272 4.8 1.89 12.655 1.89c5.964 0 10.764 3.636 11.636 9.018.145.582-.291 1.018-.873 1.018h-3.782c-.436 0-.727-.291-.873-.727-.727-2.764-3.055-4.509-6.109-4.509-4.218 0-6.836 3.636-6.836 9.455S8.436 25.6 12.8 25.6c3.055 0 5.236-1.6 6.109-4.218.145-.436.436-.727.873-.727h3.782c.582 0 1.018.582.873 1.018-.873 5.236-5.527 8.727-11.636 8.727-8 0-12.8-5.527-12.8-14.255zM35.345 29.673h-4.218c-.436 0-.727-.291-.727-.727V3.782c0-.582.582-1.164 1.164-1.164h10.182c5.964 0 9.6 3.345 9.6 8.582 0 3.055-1.455 5.818-3.927 7.273-.582.291-.727 1.018-.436 1.455l4.509 8.582c.291.436-.145 1.018-.582 1.018h-4.8a.798.798 0 0 1-.727-.436l-4.218-8.727c-.145-.436-.582-.582-1.018-.582h-3.345c-.436 0-.727.291-.727.727v8.582c.145.291-.291.582-.727.582zm.873-14.837c0 .436.291.727.727.727h4.364c2.909 0 4.509-1.6 4.509-4.218s-1.745-4.218-4.509-4.218h-4.218c-.436 0-.727.291-.727.727v6.982h-.145zM74.909 29.673h-16a.994.994 0 0 1-1.018-1.018V3.637a.994.994 0 0 1 1.018-1.018h16a.994.994 0 0 1 1.018 1.018v2.764a.994.994 0 0 1-1.018 1.018H64.291c-.436 0-.727.291-.727.727v4.945c0 .436.291.727.727.727h9.891a.994.994 0 0 1 1.018 1.018v2.473a.994.994 0 0 1-1.018 1.018h-9.891c-.436 0-.727.291-.727.727v5.527c0 .436.291.727.727.727h10.618a.994.994 0 0 1 1.018 1.018v2.764c0 .145-.436.582-1.018.582zM97.454 23.127h-8.291c-.436 0-.727.291-.873.582l-1.6 5.382c-.145.436-.436.582-.873.582h-3.782c-.582 0-1.018-.582-.873-1.164L89.889 3.2c.145-.291.436-.582.873-.582h5.382c.436 0 .727.291.873.582l8.727 25.309c.145.582-.291 1.164-.873 1.164h-4.218c-.436 0-.727-.291-.873-.582l-1.6-5.382c0-.291-.436-.582-.727-.582zm-7.127-4.218h5.964c.291 0 .436-.291.436-.582l-3.2-10.182h-.291l-3.2 10.182c-.145.291 0 .582.291.582zM114.909 28.655V8c0-.436-.291-.727-.727-.727h-6.4c-.582 0-1.164-.436-1.164-1.164V3.636c0-.582.436-1.164 1.164-1.164h19.782c.582 0 1.164.436 1.164 1.164v2.473c0 .582-.436 1.164-1.164 1.164h-6.4c-.436 0-.727.291-.727.727v20.8a.994.994 0 0 1-1.018 1.018h-3.636c-.436-.146-.873-.582-.873-1.164zM150.982 29.673h-16a.994.994 0 0 1-1.018-1.018V3.637a.994.994 0 0 1 1.018-1.018h16A.994.994 0 0 1 152 3.637v2.764a.994.994 0 0 1-1.018 1.018h-10.618c-.436 0-.727.291-.727.727v4.945c0 .436.291.727.727.727h9.891a.994.994 0 0 1 1.018 1.018v2.473a.994.994 0 0 1-1.018 1.018h-9.891c-.436 0-.727.291-.727.727v5.527c0 .436.291.727.727.727h10.618A.994.994 0 0 1 152 26.326v2.764c0 .145-.436.582-1.018.582z"/>
      <path fill="#ff3f3a" style="fill:var(--color2, #ff3f3a)" d="m171.2 14.109-9.018-11.782c-.582-.582-1.309-.873-2.036-.873s-1.455.291-2.036.873a3.098 3.098 0 0 0 0 4.073l7.127 9.6-7.127 9.6a3.098 3.098 0 0 0 0 4.073c.582.582 1.309.873 2.036.873s1.455-.291 2.036-.873l9.018-11.782c1.018-.873 1.018-2.618 0-3.782zM175.044 14.109l9.018-11.782c.582-.582 1.309-.873 2.036-.873s1.455.291 2.036.873a3.098 3.098 0 0 1 0 4.073l-7.127 9.6 7.127 9.6a3.098 3.098 0 0 1 0 4.073c-.582.582-1.309.873-2.036.873s-1.455-.291-2.036-.873l-9.018-11.782c-1.018-.873-1.018-2.618 0-3.782z"/>
    </symbol>

 <symbol id="icon-illustration" viewBox="0 0 35 32">
      <path fill="#ffcf2d" style="fill:var(--color1, #ffcf2d)" d="m21.97.924 2.434 2.348L26.85 16.51H3.906L21.97.924z"/>
      <path fill="#fff" style="fill:var(--color2, #fff)" d="M24.425 3.254 21.984.898l.408-.424c.601-.625 1.685-.553 2.31.047.625.601.734 1.684.133 2.309l-.41.424z"/>
      <path fill="#ffcf2d" style="fill:var(--color1, #ffcf2d)" d="M24.426 3.306 21.932.9l.434-.451c.293-.305.71-.464 1.174-.448.445.016.878.196 1.188.493s.505.724.537 1.169c.033.464-.111.886-.403 1.191l-.437.451zM22.035.897l2.388 2.304.384-.397c.279-.289.414-.692.384-1.135-.031-.428-.218-.836-.515-1.121s-.712-.457-1.139-.472c-.443-.016-.84.135-1.118.424l-.384.397z"/>
      <path fill="#ffcf2d" style="fill:var(--color1, #ffcf2d)" d="M24.833 2.867a.042.042 0 0 1-.026-.01L22.365.501a.037.037 0 0 1-.001-.052.037.037 0 0 1 .052-.001l2.442 2.356a.037.037 0 0 1 .001.052.035.035 0 0 1-.026.011z"/>
      <path fill="#3fb1b5" style="fill:var(--color3, #3fb1b5)" d="M29.551 16.447a.028.028 0 0 1-.015-.004c-.018-.009-.027-.031-.018-.049l3.425-7.638-6.696-8.15a.786.786 0 0 0-1.116-.159l-.273.209a.037.037 0 0 1-.052-.007.037.037 0 0 1 .007-.052l.273-.209c.186-.141.416-.202.647-.168s.434.154.572.342l6.723 8.184-.01.021-3.435 7.659a.037.037 0 0 1-.033.022z"/>
      <path fill="#fff" style="fill:var(--color2, #fff)" d="M32.876 9.168a.376.376 0 1 0 0-.751.376.376 0 0 0 0 .751z"/>
      <path fill="#ffcf2d" style="fill:var(--color1, #ffcf2d)" d="M32.876 9.205a.414.414 0 0 1 0-.826c.227 0 .413.186.413.413s-.186.413-.413.413zm0-.752a.34.34 0 1 0 0 .679.34.34 0 0 0 0-.679z"/>
      <path fill="#fff" style="fill:var(--color2, #fff)" d="M28.596 15.554h1.834c.528 0 .954.428.954.954v.027H27.64v-.027a.956.956 0 0 1 .956-.954z"/>
      <path fill="#ffcf2d" style="fill:var(--color1, #ffcf2d)" d="M31.421 16.572h-3.817v-.064a.994.994 0 0 1 .992-.991h1.834c.546 0 .991.445.991.991v.064zm-3.743-.074h3.67a.917.917 0 0 0-.917-.907h-1.834a.92.92 0 0 0-.919.907z"/>
      <path fill="#fff" style="fill:var(--color2, #fff)" d="M19.714 13.743H8.106a.789.789 0 0 1-.79-.789V4.837c0-.436.353-.789.79-.789h11.608c.437 0 .79.353.79.789v8.116a.79.79 0 0 1-.79.791z"/>
      <path fill="#3fb1b5" style="fill:var(--color3, #3fb1b5)" d="M19.714 13.78H8.106a.826.826 0 0 1-.826-.826V4.837c0-.456.37-.826.826-.826h11.608c.456 0 .826.37.826.826v8.116a.817.817 0 0 1-.241.584.819.819 0 0 1-.585.243zM8.106 4.084a.755.755 0 0 0-.753.752v8.117c0 .414.338.752.753.752h11.608a.753.753 0 0 0 .753-.753V4.836a.754.754 0 0 0-.753-.752H8.106z"/>
      <path fill="#66b0f0" style="fill:var(--color4, #66b0f0)" d="M19.721 12.988H8.225a.31.31 0 0 1-.309-.309V4.913a.31.31 0 0 1 .309-.309h11.496a.31.31 0 0 1 .309.309v7.764a.309.309 0 0 1-.309.31z"/>
      <path fill="#66b0f0" style="fill:var(--color4, #66b0f0)" d="M19.721 13.025H8.225a.346.346 0 0 1-.346-.345V4.914c0-.191.155-.346.346-.346h11.496c.191 0 .346.155.346.346v7.764a.347.347 0 0 1-.346.347zM8.225 4.642a.272.272 0 0 0-.272.272v7.766c0 .15.122.272.272.272h11.496a.27.27 0 0 0 .272-.272V4.914a.272.272 0 0 0-.272-.272H8.225z"/>
      <path fill="#fff" style="fill:var(--color2, #fff)" d="M8.637 5.368h-.182a.145.145 0 0 1-.145-.145v-.182c0-.08.065-.145.145-.145h.182c.08 0 .145.065.145.145v.182a.145.145 0 0 1-.145.145zm-.182-.398a.071.071 0 0 0-.071.071v.182c0 .039.032.071.071.071h.182c.039 0 .07-.032.071-.073V5.04a.071.071 0 0 0-.071-.071h-.182zM9.464 5.368h-.182a.145.145 0 0 1-.145-.145v-.182c0-.08.065-.145.145-.145h.182c.08 0 .145.065.145.145v.182c0 .08-.065.145-.145.145zm-.181-.398a.071.071 0 0 0-.071.071v.182c0 .039.032.071.071.071h.182a.071.071 0 0 0 .071-.071v-.182a.071.071 0 0 0-.071-.071h-.182zM10.292 5.368h-.182a.145.145 0 0 1-.145-.145v-.182c0-.08.065-.145.145-.145h.182c.08 0 .145.065.145.145v.182c0 .08-.065.145-.145.145zm-.182-.398a.071.071 0 0 0-.071.071v.182c0 .039.032.071.071.071h.182a.07.07 0 0 0 .071-.071v-.182a.071.071 0 0 0-.071-.071h-.182zM16.36 16.511h-4.506l.884-2.768h2.736l.885 2.768z"/>
      <path fill="#3fb1b5" style="fill:var(--color3, #3fb1b5)" d="M16.41 16.548h-4.607l.908-2.841h2.79l.909 2.841zm-4.506-.074h4.405l-.862-2.694h-2.682l-.861 2.694z"/>
      <path fill="#3fb1b5" style="fill:var(--color3, #3fb1b5)" d="m12.208 15.403.53-1.66h2.736l-3.266 1.66z"/>
      <path fill="#fff" style="fill:var(--color2, #fff)" d="M19.052 7.189h-2.19a.408.408 0 0 1-.408-.408V5.367c0-.225.183-.408.408-.408h2.19c.225 0 .408.183.408.408v1.414a.408.408 0 0 1-.408.408zm-2.19-2.157a.335.335 0 0 0-.334.334V6.78c0 .184.15.334.334.334h2.19c.184 0 .335-.15.335-.334V5.366a.335.335 0 0 0-.335-.334h-2.19z"/>
      <path fill="#fff" style="fill:var(--color2, #fff)" d="M18.788 5.536h-1.671c-.021 0-.037-.016-.037-.037s.016-.037.037-.037h1.671c.021 0 .037.016.037.037s-.016.037-.037.037zM18.788 5.917h-1.671c-.021 0-.037-.016-.037-.037s.016-.037.037-.037h1.671c.021 0 .037.016.037.037s-.016.037-.037.037zM18.788 6.299h-1.671c-.021 0-.037-.016-.037-.037s.016-.037.037-.037h1.671c.021 0 .037.016.037.037s-.016.037-.037.037zM18.788 6.68h-1.671c-.021 0-.037-.016-.037-.037s.016-.037.037-.037h1.671c.021 0 .037.016.037.037s-.016.037-.037.037zM19.657 12.988h-8.706l-.51.732a1.466 1.466 0 0 1-2.388.023L4.944 9.468c.13.162.727-.018 1.295-.392.577-.38.949-.858.833-1.035l2.156 2.747.66-1.166c.181-.309.481-.53.83-.611l2.247-.476h1.937l2.135.471c.371.085.686.327.865.663l1.756 3.32z"/>
      <path fill="#3fb1b5" style="fill:var(--color3, #3fb1b5)" d="M9.238 14.384c-.486 0-.929-.225-1.215-.62L4.914 9.489l.059-.044c.105.129.659-.014 1.246-.4.273-.179.51-.387.668-.586.143-.18.2-.328.154-.398l.06-.043 2.121 2.704.633-1.118c.186-.317.497-.546.854-.628l2.252-.477 1.948.001 2.135.471c.381.087.706.336.889.681l1.784 3.374h-8.748l-.499.716a1.49 1.49 0 0 1-1.219.643h-.014zM5.057 9.56l3.027 4.161c.275.379.701.594 1.17.589s.89-.227 1.158-.611l.521-.748h8.664l-1.728-3.266a1.27 1.27 0 0 0-.84-.644l-2.131-.47h-1.93l-2.243.475a1.274 1.274 0 0 0-.806.594l-.687 1.213-2.108-2.685a.82.82 0 0 1-.181.337 2.985 2.985 0 0 1-.685.601c-.39.256-.858.457-1.138.457a.44.44 0 0 1-.064-.004z"/>
      <path fill="#3fb1b5" style="fill:var(--color3, #3fb1b5)" d="M17.268 12.975a.036.036 0 0 1-.033-.02l-.619-1.221c-.009-.018-.003-.041.016-.049s.041-.002.049.016l.619 1.221c.009.018.002.041-.016.049-.005.002-.01.004-.016.004zM10.902 13.089a.035.035 0 0 1-.017-.004c-.018-.009-.026-.032-.016-.049l.612-1.209c.009-.018.032-.026.049-.016.018.009.026.032.016.049l-.612 1.209a.036.036 0 0 1-.032.02zM9.792 11.552a.038.038 0 0 1-.03-.015L8.359 9.743c-.012-.016-.01-.039.006-.052s.039-.01.052.006l1.403 1.794a.038.038 0 0 1-.006.052.033.033 0 0 1-.022.009zM14.686 9.806l-.54-.658a.036.036 0 0 1 .005-.052.036.036 0 0 1 .052.005l.493.599 1.128-.957a.037.037 0 0 1 .052.004.037.037 0 0 1-.004.052l-1.185 1.007zM13.284 9.83l-1.3-1.029c-.016-.012-.018-.036-.006-.052s.036-.018.052-.006l1.241.982.478-.611c.012-.016.036-.018.052-.006s.018.036.006.052l-.523.67zM5.535 10.132c-.117 0-.178-.036-.209-.075-.012-.016-.01-.039.006-.052s.039-.01.052.006c.052.065.22.061.45-.007.245-.074.54-.219.808-.397a2.92 2.92 0 0 0 .671-.594c.144-.182.202-.332.155-.403-.011-.017-.006-.039.011-.052.017-.011.039-.006.052.011.066.102.01.275-.159.489a3.03 3.03 0 0 1-.689.609c-.278.184-.572.33-.828.407a1.147 1.147 0 0 1-.321.058z"/>
      <path fill="#3fb1b5" style="fill:var(--color3, #3fb1b5)" d="M7.113 8.938a.176.176 0 1 1 0-.353.176.176 0 0 1 0 .353zm0-.277c-.057 0-.102.045-.102.102s.046.102.102.102c.057 0 .102-.045.102-.102s-.045-.102-.102-.102zM13.975 9.811a.176.176 0 1 1 0-.353.176.176 0 0 1 0 .353zm0-.278c-.057 0-.102.045-.102.102s.046.102.102.102c.057 0 .102-.045.102-.102s-.045-.102-.102-.102zM13.975 10.93a.176.176 0 1 1 0-.353.176.176 0 0 1 0 .353zm0-.278c-.057 0-.102.045-.102.102s.046.102.102.102c.057 0 .102-.045.102-.102s-.045-.102-.102-.102zM10.397 13.779l.555-.791v.791h-.555z"/>
      <path fill="#fe5244" style="fill:var(--color5, #fe5244)" d="M6.225 9.039c-.568.374-1.165.554-1.295.392a.035.035 0 0 1-.006-.009c-.027-.041-.025-.096 0-.164.085-.223.435-.567.881-.859.354-.234.703-.396.946-.446.14-.028.245-.02.295.034l.012.015c.116.177-.256.657-.833 1.036z"/>
      <path fill="#e57281" style="fill:var(--color6, #e57281)" d="M6.225 9.039c-.323.213-.657.364-.908.423L4.194 7.878a.49.49 0 0 1 .118-.684l1.011-.711-.573-.975a.296.296 0 0 1 .505-.31l1.804 2.806c.114.175-.257.654-.834 1.034z"/>
      <path fill="#9a3b82" style="fill:var(--color7, #9a3b82)" d="M5.641 7.897a.23.23 0 0 1-.196-.106l-.592-.885c-.011-.017-.006-.039.01-.052.017-.011.039-.006.052.01l.592.885c.023.036.059.06.101.069s.085 0 .121-.023l.139-.091a.16.16 0 0 0 .048-.22l-.626-.97c-.011-.017-.006-.039.011-.05s.039-.006.05.011l.626.97a.233.233 0 0 1-.07.321l-.139.091a.214.214 0 0 1-.127.041z"/>
      <path fill="#9a3b82" style="fill:var(--color7, #9a3b82)" d="M5.182 8.191a.238.238 0 0 1-.197-.105c-.011-.017-.006-.039.011-.052.017-.011.039-.006.052.011a.161.161 0 0 0 .22.047l.127-.08a.163.163 0 0 0 .048-.224c-.011-.017-.006-.039.011-.052.017-.011.039-.006.052.011a.233.233 0 0 1 .033.178.242.242 0 0 1-.103.149l-.127.08a.254.254 0 0 1-.127.036z"/>
      <path fill="#9a3b82" style="fill:var(--color7, #9a3b82)" d="M4.732 8.466a.232.232 0 0 1-.192-.1l-.336-.473c-.012-.017-.007-.039.009-.052s.039-.007.052.009l.336.473a.16.16 0 0 0 .216.043l.002-.001.117-.065a.161.161 0 0 0 .049-.224l-.579-.861a.038.038 0 0 1 .01-.052.038.038 0 0 1 .052.01l.579.861c.036.054.047.118.033.18s-.05.114-.105.148l-.001.001-.117.065a.225.225 0 0 1-.125.038z"/>
      <path fill="#e57281" style="fill:var(--color6, #e57281)" d="m6.629 7.336-.294-.456a.32.32 0 0 0-.449-.092l-.729.494s.212.38.726.079l.172.274a.745.745 0 0 0-.224 1.039l.798-1.338z"/>
      <path fill="#9a3b82" style="fill:var(--color7, #9a3b82)" d="M5.83 8.711a.038.038 0 0 1-.031-.017.782.782 0 0 1 .204-1.07l-.134-.214c-.177.097-.338.125-.481.087-.181-.049-.262-.192-.266-.197l-.016-.029.718-.502a.357.357 0 0 1 .501.103l.294.456c.011.017.006.039-.011.05s-.039.006-.05-.011l-.294-.456a.279.279 0 0 0-.182-.124.277.277 0 0 0-.215.043l-.66.461a.383.383 0 0 0 .202.135c.13.036.283.002.454-.097l.031-.018.21.336-.031.02a.708.708 0 0 0-.213.988c.011.017.006.039-.011.052-.005.002-.011.005-.018.005z"/>
      <path fill="#9a3b82" style="fill:var(--color7, #9a3b82)" d="M6.225 9.039c-.323.213-.657.364-.908.423l-.279-.393c.156-.204.435-.45.766-.668.354-.234.703-.396.946-.446.14-.028.245-.02.295.034l.012.015.004.006.002.005.004.006c.084.188-.284.649-.842 1.018z"/>
      <path fill="#e57281" style="fill:var(--color6, #e57281)" d="M14.9 7.453v1.081c0 .313-.435.567-.97.567-.536 0-.97-.253-.97-.567V7.453h1.941z"/>
      <path fill="#9a3b82" style="fill:var(--color7, #9a3b82)" d="M13.244 8.935c-.176-.102-.285-.245-.285-.401V7.453h1.942v.3c0 .311-.189.59-.477.707l-1.179.475z"/>
      <path fill="#e57281" style="fill:var(--color6, #e57281)" d="M15.441 7.389v.018a.338.338 0 0 1-.338.338h-.223a.695.695 0 0 1-.675.527h-.551a.693.693 0 0 1-.674-.527h-.223a.338.338 0 0 1-.338-.338v-.018c0-.187.151-.338.338-.338h.202v-.267c0-.285.21-.521.485-.561.06.101.242.342.614.328.175-.006.337-.039.471-.079a.292.292 0 0 1 .363.205c.006.034.01.069.01.105v.267h.202a.34.34 0 0 1 .338.339z"/>
      <path fill="#9a3b82" style="fill:var(--color7, #9a3b82)" d="M15.055 7.05H14.9v-.296a.291.291 0 0 0-.373-.28 1.926 1.926 0 0 1-.471.079.67.67 0 0 1-.614-.328.566.566 0 0 0-.485.561v.267h-.193s-.221-.8-.055-1.027c.164-.223.36-.125.36-.125s-.118-.666.541-.654c.658.012 1.514.776 1.577.916.098.215-.133.889-.133.889zM14.975 7.483a.031.031 0 0 1-.031-.031c0-.147.12-.268.268-.268.017 0 .031.014.031.031s-.014.031-.031.031a.207.207 0 0 0-.207.207.031.031 0 0 1-.031.031zM12.887 7.483a.031.031 0 0 1-.031-.031.207.207 0 0 0-.207-.207c-.017 0-.031-.014-.031-.031s.014-.031.031-.031c.148 0 .268.12.268.268a.031.031 0 0 1-.031.031z"/>
      <path fill="#9a3b82" style="fill:var(--color7, #9a3b82)" d="M14.59 6.815a.043.043 0 0 1-.018-.006.39.39 0 0 0-.368-.032.032.032 0 0 1-.041-.017.032.032 0 0 1 .017-.041.455.455 0 0 1 .427.039.03.03 0 0 1 .006.043.027.027 0 0 1-.023.014zM13.257 6.815c-.01 0-.018-.005-.025-.012a.031.031 0 0 1 .006-.043.455.455 0 0 1 .427-.039c.016.006.023.025.017.041s-.025.023-.041.017c-.204-.085-.365.031-.368.032a.034.034 0 0 1-.017.005zM14.007 7.85a.487.487 0 0 1-.166-.033c-.016-.006-.025-.023-.018-.039s.023-.025.039-.018c.258.096.343-.074.347-.081.007-.015.026-.022.041-.015s.022.026.015.041c-.001.002-.071.146-.257.146zM13.92 7.619c-.028 0-.059 0-.085-.002-.017-.001-.03-.016-.028-.033s.016-.029.033-.028c.073.005.184 0 .186 0 .017-.001.031.012.032.029s-.012.031-.03.032c-.002 0-.053.002-.108.002zM14.392 7.297c.034 0 .062-.046.062-.103s-.028-.103-.062-.103-.062.046-.062.103.028.103.062.103zM13.511 7.297c.034 0 .062-.046.062-.103s-.028-.103-.062-.103-.062.046-.062.103.028.103.062.103z"/>
      <path fill="#fff" style="fill:var(--color2, #fff)" d="M13.657 7.572h-.387a.167.167 0 0 1-.166-.166v-.387c0-.091.075-.166.166-.166h.387c.091 0 .166.075.166.166v.387a.16.16 0 0 1-.047.116.163.163 0 0 1-.119.05zm-.387-.657a.105.105 0 0 0-.105.105v.387c0 .058.047.104.105.104h.387a.103.103 0 0 0 .075-.032c.02-.02.03-.046.03-.073v-.387a.105.105 0 0 0-.105-.105h-.387zM14.605 7.572h-.387a.167.167 0 0 1-.166-.166v-.387c0-.091.075-.166.166-.166h.387c.091 0 .166.075.166.166v.387a.167.167 0 0 1-.166.166zm-.387-.657a.105.105 0 0 0-.105.105v.387c0 .058.047.104.105.104h.387a.105.105 0 0 0 .105-.104V7.02a.105.105 0 0 0-.105-.105h-.387z"/>
      <path fill="#fff" style="fill:var(--color2, #fff)" d="M14.082 7.109h-.289v.061h.289v-.061z"/>
      <path fill="#66b0f0" style="fill:var(--color4, #66b0f0)" d="M14.707 12.548h-1.344a.258.258 0 0 1-.258-.258v-.714c0-.143.116-.258.258-.258h1.344c.143 0 .258.116.258.258v.714a.258.258 0 0 1-.258.258zm-1.344-1.157a.184.184 0 0 0-.184.184v.714c0 .102.082.184.184.184h1.344a.184.184 0 0 0 .184-.184v-.714a.184.184 0 0 0-.184-.184h-1.344z"/>
      <path fill="#66b0f0" style="fill:var(--color4, #66b0f0)" d="M14.069 12.224h-.455a.132.132 0 0 1-.132-.132v-.318c0-.073.059-.132.132-.132h.455c.073 0 .132.059.132.132v.318a.132.132 0 0 1-.132.132zM14.512 12.215l-.14-.093a.143.143 0 0 1-.062-.118v-.14a.14.14 0 0 1 .062-.118l.14-.093c.033-.022.076.002.076.044v.476a.049.049 0 0 1-.076.043z"/>
      <path fill="#3fb1b5" style="fill:var(--color3, #3fb1b5)" d="M32.684 16.572H.037c-.021 0-.037-.016-.037-.037s.016-.037.037-.037h32.647c.021 0 .037.016.037.037s-.016.037-.037.037z"/>
      <path fill="#fff" style="fill:var(--color2, #fff)" d="M10.548 16.751V31.93h-.857v-2.889a.489.489 0 0 0-.488-.488H3.068a.489.489 0 0 0-.488.488v2.889h-.857V16.751h8.826z"/>
      <path fill="#3fb1b5" style="fill:var(--color3, #3fb1b5)" d="M10.585 31.967h-.931v-2.926a.452.452 0 0 0-.451-.451H3.068a.452.452 0 0 0-.451.451v2.926h-.931V16.714h8.9v15.253zm-.857-.074h.783V16.787H1.759v15.106h.783v-2.852c0-.289.236-.525.525-.525h6.135c.289 0 .525.236.525.525v2.852z"/>
      <path fill="#d0f0e4" style="fill:var(--color8, #d0f0e4)" d="M10.574 16.751v4.028l-8.852 7.287.001-11.315h8.851z"/>
      <path fill="#3fb1b5" style="fill:var(--color3, #3fb1b5)" d="M9.228 21.158H3.042a.5.5 0 0 1-.499-.499v-2.753a.5.5 0 0 1 .499-.499h6.186a.5.5 0 0 1 .499.499v2.753a.5.5 0 0 1-.499.499zm-6.186-3.677a.425.425 0 0 0-.425.425v2.753c0 .235.191.425.425.425h6.186a.426.426 0 0 0 .426-.425v-2.753a.425.425 0 0 0-.426-.425H3.042z"/>
      <path fill="#ffcf2d" style="fill:var(--color1, #ffcf2d)" d="M7.708 23.207H4.663l-.127-.872h3.046l.125.872z"/>
      <path fill="#fff" style="fill:var(--color2, #fff)" d="M9.333 21.832a.687.687 0 0 0-.688.687v.687H6.054v-.687c0-.38.307-.687.687-.687h2.591z"/>
      <path fill="#3fb1b5" style="fill:var(--color3, #3fb1b5)" d="M8.682 23.244H6.017v-.724c0-.4.325-.724.724-.724h2.591v.074a.65.65 0 0 0-.651.65v.724zm-2.591-.074h2.517v-.65c0-.285.166-.532.406-.65H6.741a.65.65 0 0 0-.651.65v.65z"/>
      <path fill="#fff" style="fill:var(--color2, #fff)" d="M9.979 22.335H7.388a.688.688 0 0 0-.663-.503h2.591c.316 0 .582.213.663.503z"/>
      <path fill="#3fb1b5" style="fill:var(--color3, #3fb1b5)" d="M10.028 22.372H7.361l-.007-.027a.652.652 0 0 0-.627-.476v-.074h2.591a.73.73 0 0 1 .699.53l.012.047zm-2.614-.074h2.514a.653.653 0 0 0-.612-.429H7.043a.724.724 0 0 1 .371.429zM9.228 26.921H3.042a.5.5 0 0 1-.499-.499v-2.753a.5.5 0 0 1 .499-.499h6.186a.5.5 0 0 1 .499.499v2.753a.5.5 0 0 1-.499.499zm-6.186-3.677a.425.425 0 0 0-.425.425v2.753c0 .235.191.425.425.425h6.186a.426.426 0 0 0 .426-.425v-2.753a.425.425 0 0 0-.426-.425H3.042zM7.403 19.265a.036.036 0 0 1-.037-.037.36.36 0 0 0-.36-.36h-1.74a.36.36 0 0 0-.36.36c0 .021-.016.037-.037.037s-.037-.016-.037-.037c0-.24.194-.434.434-.434h1.74c.24 0 .434.194.434.434a.036.036 0 0 1-.037.037z"/>
      <path fill="#3fb1b5" style="fill:var(--color3, #3fb1b5)" d="M7.403 25.028a.036.036 0 0 1-.037-.037.36.36 0 0 0-.36-.36h-1.74a.36.36 0 0 0-.36.36c0 .021-.016.037-.037.037s-.037-.016-.037-.037c0-.24.194-.434.434-.434h1.74c.24 0 .434.194.434.434a.036.036 0 0 1-.037.037z"/>
      <path fill="#fff" style="fill:var(--color2, #fff)" d="M31.384 16.751h-.914v15.213h.914V16.751z"/>
      <path fill="#3fb1b5" style="fill:var(--color3, #3fb1b5)" d="M31.421 32h-.988V16.714h.988V32zm-.913-.074h.84V16.787h-.84v15.139z"/>
      <path fill="#3fb1b5" style="fill:var(--color3, #3fb1b5)" d="M34.925 32H15.856c-.021 0-.037-.016-.037-.037s.016-.037.037-.037h19.069c.021 0 .037.016.037.037s-.016.037-.037.037z"/>
      <path fill="#fff" style="fill:var(--color2, #fff)" d="M4.317 14.449h-.552s-.788-3.284-1.481-3.391-.728 1.157-.728 1.157.012-1.922 1.743-1.659c1.732.263 1.018 3.893 1.018 3.893z"/>
      <path fill="#3fb1b5" style="fill:var(--color3, #3fb1b5)" d="M4.347 14.486h-.611l-.007-.028c-.002-.009-.2-.83-.48-1.652-.462-1.361-.783-1.682-.97-1.71a.406.406 0 0 0-.335.088c-.326.27-.351 1.025-.351 1.033l-.074-.001c0-.01.002-.235.075-.523.068-.267.21-.639.509-.895.304-.259.707-.353 1.201-.277.32.048.579.213.772.487.31.441.451 1.156.418 2.126-.025.719-.14 1.317-.141 1.323l-.007.03zm-.553-.074h.493c.023-.129.114-.66.135-1.282.022-.655-.031-1.547-.405-2.079a1.044 1.044 0 0 0-.723-.456c-.471-.071-.856.016-1.142.261a1.29 1.29 0 0 0-.221.248.475.475 0 0 1 .36-.079c.301.047.648.639 1.029 1.761.25.736.435 1.474.473 1.627z"/>
      <path fill="#3fb1b5" style="fill:var(--color3, #3fb1b5)" d="M4.074 14.437a.037.037 0 0 1-.037-.037c-.041-2.448-.56-3.312-.988-3.605-.325-.223-.609-.122-.611-.12-.02.007-.041-.002-.048-.022s.002-.041.022-.048c.014-.005.322-.114.679.129.275.189.501.536.668 1.033.215.639.333 1.525.352 2.632a.037.037 0 0 1-.037.038z"/>
      <path fill="#fe5244" style="fill:var(--color5, #fe5244)" d="M5.821 14.4H3.227v2.111h2.594V14.4z"/>
      <path fill="#fff" style="fill:var(--color2, #fff)" d="M6.367 15.456a.687.687 0 0 1-.545-.017.944.944 0 0 1-.366-.289 1.202 1.202 0 0 1-.239-.75c0-.76-.605-1.237-.853-.231-.017.07-.033.146-.047.231v-.007l.001-.01v-.005c.005-.063.023-.248.08-.472.042-.166.105-.35.198-.521.047-.085.101-.166.165-.239a.895.895 0 0 1 .7-.322c.568 0 .984.669 1.143 1.335.139.579.082 1.158-.236 1.297z"/>
      <path fill="#3fb1b5" style="fill:var(--color3, #3fb1b5)" d="M6.124 15.541a.781.781 0 0 1-.317-.069.985.985 0 0 1-.381-.3 1.248 1.248 0 0 1-.246-.772c0-.347-.152-.738-.38-.765-.165-.02-.31.178-.401.542a4.03 4.03 0 0 0-.047.229l-.074-.006v-.007l.001-.015v-.004c.005-.069.025-.253.081-.478.05-.199.118-.377.202-.53.053-.095.108-.176.17-.245a.925.925 0 0 1 .728-.334c.59 0 1.017.685 1.178 1.364.071.299.091.593.054.827-.041.264-.149.44-.311.511a.648.648 0 0 1-.257.052zM4.778 13.56l.031.002c.246.03.445.406.445.839 0 .28.08.532.231.728a.923.923 0 0 0 .352.278.657.657 0 0 0 .515.017c.275-.12.363-.636.215-1.254a2.406 2.406 0 0 0-.411-.904c-.205-.264-.445-.403-.696-.403a.857.857 0 0 0-.671.31 1.228 1.228 0 0 0-.16.232c-.061.113-.114.24-.157.38a.869.869 0 0 1 .064-.092c.087-.107.176-.133.242-.133z"/>
      <path fill="#3fb1b5" style="fill:var(--color3, #3fb1b5)" d="M6.235 15.516a.038.038 0 0 1-.037-.033c-.18-1.686-.589-2.207-.9-2.347-.278-.125-.513.038-.515.039-.016.012-.039.007-.052-.009s-.007-.039.009-.052c.011-.007.272-.189.588-.047.209.095.391.309.54.638.187.412.322 1.007.403 1.768.003.02-.012.038-.033.041l-.003.001zM1.519 12.215c0 .203-.023.979.717 1.014s.814-1.082.814-1.082-.364-.989-.766-1.089c-.68-.171-.765 1.157-.765 1.157z"/>
      <path fill="#3fb1b5" style="fill:var(--color3, #3fb1b5)" d="M5.217 14.4h-.9c.208-1.302.9-.813.9 0z"/>
      <path fill="#fff" style="fill:var(--color2, #fff)" opacity=".4" d="M20.504 4.837v8.116a.79.79 0 0 1-.79.789h-9.291a1.467 1.467 0 0 1-2.372 0l-.001-.001a.786.786 0 0 1-.573-.311l10.874-9.382h1.364a.79.79 0 0 1 .79.789zM6.367 15.493a.674.674 0 0 1-.545-.017v1.035H3.907l2.195-1.893.54-.459c.157.671.07 1.175-.275 1.334z"/>
      <path fill="#a0505a" style="fill:var(--color9, #a0505a)" d="M22.672 20.955v6.843H21.09l-1.007-2.812-1.442-4.032h4.031z"/>
      <path fill="#73325a" style="fill:var(--color10, #73325a)" d="M18.641 20.955h4.031v2.197l-3.552-.858-.48-1.339z"/>
      <path fill="#fff" style="fill:var(--color2, #fff)" d="M22.709 27.836h-1.644l-1.049-2.929.086.047c.002.001.207.111.622.165.384.05 1.033.061 1.939-.168l.045-.011v2.897zm-1.592-.074h1.519v-2.728c-.898.223-1.542.209-1.927.159a2.357 2.357 0 0 1-.561-.136l.969 2.706z"/>
      <path fill="#fff" style="fill:var(--color2, #fff)" d="M20.907 25.684a.216.216 0 1 1 0-.433.216.216 0 0 1 0 .433zm0-.359a.143.143 0 1 0 0 .286.143.143 0 0 0 0-.286zM21.762 26.263a.216.216 0 1 1 0-.433.216.216 0 0 1 0 .433zm0-.359a.143.143 0 1 0 0 .286.143.143 0 0 0 0-.286zM22.399 25.62a.216.216 0 1 1 0-.433.216.216 0 0 1 0 .433zm0-.359a.143.143 0 1 0 0 .286.143.143 0 0 0 0-.286zM22.147 26.937a.216.216 0 1 1 0-.433.216.216 0 0 1 0 .433zm0-.359a.143.143 0 1 0 0 .286.143.143 0 0 0 0-.286zM21.086 26.61a.216.216 0 1 1 0-.433.216.216 0 0 1 0 .433zm0-.359a.143.143 0 1 0 0 .286.143.143 0 0 0 0-.286zM21.379 27.594a.216.216 0 1 1 0-.433.216.216 0 0 1 0 .433zm0-.359a.143.143 0 1 0 0 .286.143.143 0 0 0 0-.286z"/>
      <path fill="#66b0f0" style="fill:var(--color4, #66b0f0)" d="m23.42 29.075-1.085 2.251a.981.981 0 0 1-.904.599h-1.384c-.354 0-.569-.359-.434-.686l1.391-3.354a1.055 1.055 0 0 1 .981-.68c.303 0 .603.205.802.433l.482.52c.223.253.28.609.15.917z"/>
      <path fill="#fff" style="fill:var(--color2, #fff)" d="m23.42 29.075-1.085 2.251a.981.981 0 0 1-.904.599H19.96c-.136 0-.214-.085-.259-.202h.327c.395 0 .75-.236.904-.599l1.251-2.608a.707.707 0 0 1 .635-.4c.353 0 .621.258.67.585a.862.862 0 0 1-.068.372z"/>
      <path fill="#66b0f0" style="fill:var(--color4, #66b0f0)" d="M21.432 31.962h-1.471c-.137 0-.236-.076-.294-.225a.034.034 0 0 1 .004-.034.037.037 0 0 1 .031-.016h.327c.38 0 .722-.226.87-.577l.001-.001 1.251-2.608a.744.744 0 0 1 .668-.42c.355 0 .653.259.707.617v.004a.916.916 0 0 1-.07.389l-.001.001-1.085 2.25c-.16.377-.528.621-.937.621zm-1.673-.202c.047.087.112.128.202.128h1.471a.94.94 0 0 0 .869-.577l.001-.001 1.085-2.25a.827.827 0 0 0 .064-.354.64.64 0 0 0-.633-.552.67.67 0 0 0-.601.379l-1.251 2.607c-.16.377-.528.621-.937.621h-.269z"/>
      <path fill="#fff" style="fill:var(--color2, #fff)" d="M23.171 28.05a.943.943 0 0 0-.426-.123.695.695 0 0 0-.623.392l-1.295 2.7c-.165.39-.546.642-.97.642h-.239a.438.438 0 0 1-.029-.074h.268a.98.98 0 0 0 .903-.598l.001-.001 1.296-2.701a.769.769 0 0 1 .69-.434c.093 0 .205.031.301.064l.123.133z"/>
      <path fill="#a0505a" style="fill:var(--color9, #a0505a)" d="m18.641 20.955-.309 4.032-.138 1.806s-.899 1.001-1.922.384l-1.557-7.196a2.374 2.374 0 0 1 2.006-2.854l1.92 3.829z"/>
      <path fill="#fff" style="fill:var(--color2, #fff)" d="M16.965 27.463a1.36 1.36 0 0 1-.711-.205l-.014-.009-.489-2.314.059.018c1.165.349 2.5.002 2.514-.001l.05-.014-.143 1.919-.009.01c-.01.01-.234.257-.589.432-.178.086-.41.164-.669.164zm-.659-.26c.408.241.844.251 1.294.031.305-.15.516-.361.559-.407l.133-1.791a5.832 5.832 0 0 1-.777.123c-.432.041-1.065.05-1.668-.117l.459 2.161z"/>
      <path fill="#fff" style="fill:var(--color2, #fff)" d="M16.919 26.139a.216.216 0 1 1 0-.433.216.216 0 0 1 0 .433zm0-.359a.143.143 0 1 0 0 .286.143.143 0 0 0 0-.286zM18.061 25.864a.216.216 0 1 1 0-.433.216.216 0 0 1 0 .433zm0-.359a.143.143 0 1 0 0 .286.143.143 0 0 0 0-.286zM16.231 25.62a.216.216 0 1 1 0-.433.216.216 0 0 1 0 .433zm0-.359a.143.143 0 1 0 0 .286.143.143 0 0 0 0-.286zM16.74 27.116a.216.216 0 1 1 0-.433.216.216 0 0 1 0 .433zm0-.359a.143.143 0 1 0 0 .286.143.143 0 0 0 0-.286zM17.577 26.757a.216.216 0 1 1 0-.433.216.216 0 0 1 0 .433zm0-.359a.143.143 0 1 0 0 .286.143.143 0 0 0 0-.286z"/>
      <path fill="#66b0f0" style="fill:var(--color4, #66b0f0)" d="m19.38 27.223-1.186 4.74h-.374l-.05-.002c-.283-.026-.521-.264-.582-.546l-.917-4.241c1.023.618 1.923-.382 1.923-.382l1.186.432z"/>
      <path fill="#fff" style="fill:var(--color2, #fff)" d="M19.441 29.655c.25-1.318.319-2.325-.112-2.406s-1.197.793-1.446 2.111c-.25 1.318-.119 2.484.311 2.565.43.082.997-.95 1.247-2.27z"/>
      <path fill="#66b0f0" style="fill:var(--color4, #66b0f0)" d="M18.243 31.967a.28.28 0 0 1-.057-.005c-.224-.042-.38-.344-.44-.851-.058-.488-.022-1.113.1-1.757.116-.609.351-1.175.662-1.596.285-.385.595-.589.828-.545.224.042.335.295.341.775.005.391-.06.938-.199 1.675a6.326 6.326 0 0 1-.43 1.411c-.181.4-.379.68-.572.811a.418.418 0 0 1-.231.081zm1.028-4.686c-.197 0-.461.194-.703.521-.305.412-.535.968-.649 1.565-.12.638-.156 1.254-.1 1.735.055.465.194.751.381.787.071.014.15-.009.234-.065.378-.257.777-1.151.97-2.175.139-.73.203-1.274.198-1.66-.005-.433-.1-.669-.28-.703a.207.207 0 0 0-.05-.005z"/>
      <path fill="#fff" style="fill:var(--color2, #fff)" d="M17.71 29.339c-.129.684-.167 1.344-.106 1.86.044.371.138.636.266.764h-.049l-.05-.002c-.116-.152-.198-.408-.24-.752-.063-.523-.025-1.191.107-1.882.124-.654.375-1.268.708-1.729.199-.275.408-.468.599-.556l.111.037c-.439.13-1.106.996-1.345 2.261z"/>
      <path fill="#fe5244" style="fill:var(--color5, #fe5244)" d="m16.722 17.126 5.61-.578 5.608 1.573-.048.745c-.076 1.175-1.09 2.09-2.268 2.09h-6.982l-1.921-3.83z"/>
      <path fill="#fff" style="fill:var(--color2, #fff)" d="M25.377 20.476h-6.982c-.021 0-.037-.016-.037-.037s.016-.037.037-.037h6.982c.534 0 1.093-.282 1.536-.775.419-.467.67-1.051.67-1.561 0-.021.016-.037.037-.037s.037.016.037.037c0 .529-.258 1.131-.689 1.612-.457.507-1.037.798-1.591.798z"/>
      <path fill="#fff" style="fill:var(--color2, #fff)" d="M24.827 19.861h-6.715c-.021 0-.037-.016-.037-.037s.016-.037.037-.037h6.715c.466 0 .948-.219 1.355-.617.382-.374.651-.856.735-1.323.004-.02.023-.033.043-.03s.033.023.029.043c-.173.946-1.104 2-2.163 2z"/>
      <path fill="#fff" style="fill:var(--color2, #fff)" d="M24.236 19.234h-6.48c-.021 0-.037-.016-.037-.037s.016-.037.037-.037h6.48c.886 0 1.654-.797 1.928-1.545a.036.036 0 0 1 .047-.022c.02.007.03.028.022.047a2.67 2.67 0 0 1-.777 1.104c-.38.321-.802.491-1.22.491z"/>
      <path fill="#fff" style="fill:var(--color2, #fff)" d="M23.916 18.558h-6.48c-.021 0-.037-.016-.037-.037s.016-.037.037-.037h6.48c.61 0 1.249-.397 1.67-1.035.011-.017.034-.022.052-.011s.022.034.011.052c-.435.659-1.098 1.068-1.733 1.068z"/>
      <path fill="#fff" style="fill:var(--color2, #fff)" d="M23.608 17.943h-6.48c-.021 0-.037-.016-.037-.037s.016-.037.037-.037h6.48c.47 0 .943-.216 1.333-.609a.036.036 0 0 1 .052 0 .036.036 0 0 1 0 .052c-.403.407-.895.631-1.385.631zM23.276 17.316h-6.48c-.021 0-.037-.016-.037-.037s.016-.037.037-.037h6.48c.277 0 .555-.079.828-.232.017-.01.041-.004.05.014s.004.041-.014.05a1.747 1.747 0 0 1-.865.242z"/>
      <path fill="#fff" style="fill:var(--color2, #fff)" d="M18.629 20.992a.035.035 0 0 1-.033-.021l-1.92-3.83a.037.037 0 0 1 .016-.049.037.037 0 0 1 .049.016l1.92 3.83a.037.037 0 0 1-.016.049.024.024 0 0 1-.016.005zM28.247 12.988c-.529.15-1.049.106-1.104-.055-.052-.154.182-.417.655-.591l.073-.026a2.11 2.11 0 0 1 .419-.095c.397-.05.721.021.761.141.055.161-.245.467-.804.626z"/>
      <path fill="#3fb1b5" style="fill:var(--color3, #3fb1b5)" d="M27.617 13.117c-.268 0-.471-.06-.51-.172-.066-.197.225-.471.678-.638l.073-.026h.001c.139-.047.283-.079.427-.096.407-.052.751.02.801.166.017.048.009.107-.023.168-.103.197-.419.396-.806.505a2.494 2.494 0 0 1-.639.092zm.925-.875a2.098 2.098 0 0 0-.659.109l-.071.026a1.505 1.505 0 0 0-.512.295c-.097.093-.143.187-.122.25.041.119.514.186 1.059.032.301-.085.653-.263.76-.468.022-.043.029-.081.02-.111-.022-.065-.197-.133-.475-.133z"/>
      <path fill="#a0505a" style="fill:var(--color9, #a0505a)" d="M27.913 16.573h-.203l-.532-3.594v-.002l-.014-.09c.026-.164.282-.395.733-.545.225-.075.449-.108.639-.112l.213.583.615 1.686a1.544 1.544 0 0 1-1.451 2.074z"/>
      <path fill="#73325a" style="fill:var(--color10, #73325a)" d="M28.743 12.801a1.938 1.938 0 0 1-.496.213c-.458.129-.921.076-1.07-.034v-.002l-.014-.09c.026-.164.282-.395.733-.545.225-.075.449-.108.639-.112l.207.57z"/>
      <path fill="#a0505a" style="fill:var(--color9, #a0505a)" d="m21.326 13.617-.646 1.606a2.095 2.095 0 0 1-1.944 1.313h-8.679v-.794c0-.192.118-.364.298-.432l.892-.338a.704.704 0 0 1 .252-.047h1.012l5.728-.578.989-2.263 2.098 1.533z"/>
      <path fill="#73325a" style="fill:var(--color10, #73325a)" d="M10.094 16.077a.036.036 0 0 1-.037-.037c0-.161.097-.302.248-.36l.673-.255c.018-.007.041.002.048.021s-.002.041-.021.048l-.673.255a.311.311 0 0 0-.202.291.036.036 0 0 1-.037.037zM10.094 16.483a.036.036 0 0 1-.037-.037c0-.161.097-.302.248-.36l.673-.255c.018-.007.041.002.048.021s-.002.041-.021.048l-.673.255a.311.311 0 0 0-.202.291.036.036 0 0 1-.037.037zM10.319 16.535a.035.035 0 0 1-.034-.025c-.007-.02.002-.041.022-.047l.673-.242a.036.036 0 0 1 .047.022c.007.02-.002.041-.022.047l-.673.242a.06.06 0 0 1-.012.002z"/>
      <path fill="#fe5244" style="fill:var(--color5, #fe5244)" d="M10.922 15.108s.63-1.607.831-1.58-.558 1.477-.558 1.477l-.273.103z"/>
      <path fill="#73325a" style="fill:var(--color10, #73325a)" d="m19.228 12.085-.145.331 1.858 2.158.385-.957-2.098-1.532z"/>
      <path fill="#3fb1b5" style="fill:var(--color3, #3fb1b5)" d="m27.177 12.981.762 5.139-5.607-1.573-1.007-2.932-2.6-1.9.913-1.087a4.286 4.286 0 0 1 3.282-1.531h1.802c1.567 0 3.009.856 3.761 2.23l.584 1.011s-.176-.258-1.124.001c-.835.23-.766.641-.766.641z"/>
      <path fill="#fff" style="fill:var(--color2, #fff)" d="m21.326 13.629-.009-.001a.036.036 0 0 1-.027-.044l.291-1.264c.005-.02.025-.032.044-.027s.032.025.027.044l-.291 1.264a.036.036 0 0 1-.036.028zM27.798 16.957a.038.038 0 0 1-.037-.031l-.948-5.893a.036.036 0 0 1 .031-.042c.02-.004.039.01.042.031l.948 5.893a.036.036 0 0 1-.031.042h-.005zM27.927 18.157l-.01-.001-5.596-1.596a.037.037 0 0 1-.026-.045.037.037 0 0 1 .045-.026l5.596 1.596c.02.006.031.026.026.045a.038.038 0 0 1-.036.027z"/>
      <path fill="#a0505a" style="fill:var(--color9, #a0505a)" d="M22.634 8.277v.826l1.459-.012V7.633l-1.459.644z"/>
      <path fill="#a0505a" style="fill:var(--color9, #a0505a)" d="M24.211 7.378V7.4a.39.39 0 0 1-.389.401h-.086c-.055.219-.547.475-.897.475h-.407a.723.723 0 0 1-.713-.84l.02-.119-.12-.068a.13.13 0 0 1-.041-.193l.261-.344.057-.339a.828.828 0 0 1 .472-.618c.096 1.081 1.05 1.209 1.302 1.223h.14c.221 0 .401.179.401.401z"/>
      <path fill="#73325a" style="fill:var(--color10, #73325a)" d="M23.565 7.521a.036.036 0 0 1-.037-.037c0-.194.159-.353.353-.353.021 0 .037.016.037.037s-.016.037-.037.037a.28.28 0 0 0-.279.279.036.036 0 0 1-.037.037zM22.232 6.988c.035 0 .063-.065.063-.145s-.028-.145-.063-.145-.063.065-.063.145.028.145.063.145zM22.488 6.66a.038.038 0 0 1-.03-.015c-.164-.226-.316-.214-.319-.214-.021.003-.038-.012-.041-.033a.038.038 0 0 1 .033-.041c.007-.001.197-.016.385.243a.036.036 0 0 1-.009.052.033.033 0 0 1-.021.007z"/>
      <path fill="#73325a" style="fill:var(--color10, #73325a)" d="M23.67 6.977h.14c.221 0 .401.179.401.401V7.4a.39.39 0 0 1-.389.401l-.095.066c-.398.256-.949 1.261-.814 1.973.152.8.85.979 1.494.856s1.114-.498.962-1.3a1.561 1.561 0 0 0-.081-.283l.032.011c.775.211 1.685.236 1.936-.369s.194-1.204-.56-1.516c-.438-.182-1.033-.181-1.494-.055.232-.808-.181-1.707-.94-1.796-1.192-.141-1.875.35-1.894.364-.001.143.096 1.154 1.301 1.225z"/>
      <path fill="#fff" style="fill:var(--color2, #fff)" d="M25.32 9.163a.036.036 0 0 1-.036-.03c-.13-.682-.689-1.059-.695-1.062-.01-.006-.016-.018-.016-.031s.006-.023.016-.031c.381-.269.546-.658.61-.864.006-.02.027-.031.045-.025.02.006.031.027.025.045a1.746 1.746 0 0 1-.596.873c.139.105.568.471.684 1.08a.037.037 0 0 1-.029.043l-.007.001z"/>
      <path fill="#fe5244" style="fill:var(--color5, #fe5244)" d="M25.567 7.167h-.326a.036.036 0 0 1-.037-.037v-.326c0-.191.155-.346.346-.346h.017c.191 0 .346.155.346.346v.017a.347.347 0 0 1-.346.345zm-.288-.074h.289a.275.275 0 0 0 .272-.272v-.017a.272.272 0 0 0-.272-.272h-.017a.272.272 0 0 0-.272.272v.289z"/>
      <path fill="#fe5244" style="fill:var(--color5, #fe5244)" d="M25.75 7.666a.391.391 0 0 1-.333-.182l-.209-.332c-.011-.017-.006-.041.011-.05l.332-.209c.089-.055.194-.074.296-.05s.189.085.246.173l.02.031c.057.089.074.194.05.296s-.085.189-.173.246l-.031.02a.412.412 0 0 1-.209.058zm-.46-.523.189.301a.322.322 0 0 0 .442.098l.031-.02a.32.32 0 0 0 .098-.44l-.02-.031a.32.32 0 0 0-.44-.098l-.3.189zM23.735 8.649l-.026-.001a.343.343 0 0 1-.236-.119l-.011-.014a.342.342 0 0 1 .034-.485l.231-.221a.034.034 0 0 1 .027-.01c.01 0 .02.005.026.012l.228.257a.347.347 0 0 1-.035.488l-.015.011a.335.335 0 0 1-.223.082zm.017-.762-.205.197a.267.267 0 0 0-.093.188.269.269 0 0 0 .066.197l.011.014a.272.272 0 0 0 .382.028l.015-.012a.272.272 0 0 0 .028-.382l-.204-.229z"/>
      <path fill="#fe5244" style="fill:var(--color5, #fe5244)" d="M24.206 8.514a.396.396 0 0 1-.38-.288l-.105-.377a.038.038 0 0 1 .026-.046l.378-.104a.392.392 0 0 1 .484.272l.01.036a.392.392 0 0 1-.272.484l-.036.01a.35.35 0 0 1-.105.015zm-.309-.307a.322.322 0 0 0 .392.223l.036-.01a.317.317 0 0 0 .221-.392l-.01-.036a.317.317 0 0 0-.392-.221l-.342.095.095.342z"/>
      <path fill="#ffcf2d" style="fill:var(--color1, #ffcf2d)" d="m18.363 31.962-.007-.001a.036.036 0 0 1-.028-.044l2.142-10.024a.036.036 0 0 1 .044-.028c.02.004.033.023.028.044l-2.144 10.024a.036.036 0 0 1-.036.029zM28.13 31.962a.037.037 0 0 1-.036-.029l-2.142-10.024a.038.038 0 0 1 .028-.044.038.038 0 0 1 .044.028l2.142 10.024a.038.038 0 0 1-.028.044l-.009.001z"/>
      <path fill="#ffcf2d" style="fill:var(--color1, #ffcf2d)" d="M27.626 29.737h-8.788c-.021 0-.037-.016-.037-.037s.016-.037.037-.037h8.788c.021 0 .037.016.037.037s-.016.037-.037.037z"/>
      <path fill="#fff" style="fill:var(--color2, #fff)" d="M27.674 21.901h-8.856a.203.203 0 0 1-.203-.203v-.54c0-.112.091-.203.203-.203h8.856c.112 0 .203.091.203.203v.54a.203.203 0 0 1-.203.203z"/>
      <path fill="#66b0f0" style="fill:var(--color4, #66b0f0)" d="M27.674 21.938h-8.856a.24.24 0 0 1-.24-.24v-.54a.24.24 0 0 1 .24-.24h8.856a.24.24 0 0 1 .24.24v.54a.24.24 0 0 1-.24.24zm-8.856-.946a.167.167 0 0 0-.166.166v.54c0 .091.075.166.166.166h8.856a.167.167 0 0 0 .166-.166v-.54a.167.167 0 0 0-.166-.166h-8.856z"/>
    </symbol>
  <symbol id="icon-check" viewBox="0 0 32 32">
      <path fill="#ff3f3a" style="fill:var(--color1, #ff3f3a)" d="M16 30.667c8.087 0 14.667-6.579 14.667-14.667 0-1.396-.195-2.771-.581-4.089a1.222 1.222 0 1 0-2.346.686c.32 1.095.482 2.24.482 3.403 0 6.739-5.483 12.222-12.222 12.222S3.778 22.739 3.778 16 9.261 3.778 16 3.778c2.449 0 4.806.716 6.815 2.071a1.222 1.222 0 0 0 1.366-2.027A14.574 14.574 0 0 0 16 1.334c-8.087 0-14.667 6.579-14.667 14.667S7.913 30.668 16 30.668z"/>
      <path fill="#ff3f3a" style="fill:var(--color1, #ff3f3a)" d="M29.723 3.058 15.999 16.781l-4.391-4.39a1.332 1.332 0 1 0-1.885 1.885l5.333 5.333c.261.261.601.391.943.391s.682-.13.943-.391L31.609 4.942a1.332 1.332 0 1 0-1.885-1.885z"/>
    </symbol>
  </defs>
</svg>